<svg width="1517" height="1517" xmlns="http://www.w3.org/2000/svg" xmlns:xlink="http://www.w3.org/1999/xlink" xml:space="preserve" overflow="hidden"><defs><clipPath id="clip0"><rect x="545" y="284" width="1517" height="1517"/></clipPath><clipPath id="clip1"><rect x="729" y="467" width="1148" height="1149"/></clipPath><clipPath id="clip2"><rect x="729" y="467" width="1148" height="1149"/></clipPath><clipPath id="clip3"><rect x="729" y="467" width="1148" height="1149"/></clipPath></defs><g clip-path="url(#clip0)" transform="translate(-545 -284)"><g clip-path="url(#clip1)"><g clip-path="url(#clip2)"><g clip-path="url(#clip3)"><path d="M1303 468C1049.39 468 843.8 763.538 843.8 1128.1 843.8 1397.56 1049.39 1616 1303 1616 1556.61 1616 1762.2 1397.56 1762.2 1128.1 1762.2 763.538 1556.61 468 1303 468ZM1303 1486.85C1121.01 1486.85 972.95 1325.91 972.95 1128.1L1059.05 1128.1C1059.05 1278.44 1168.49 1400.75 1303 1400.75L1303 1486.85ZM1451 784.26C1389.87 696.371 1332.03 683.25 1303 683.25L1303 597.15C1348.83 597.15 1438.19 615.069 1521.68 735.091L1451 784.26Z" fill="#FFAC40" fill-rule="nonzero" fill-opacity="1"/></g></g></g></g></svg>